<?xml version="1.0" standalone="no"?><!DOCTYPE svg PUBLIC "-//W3C//DTD SVG 1.1//EN"
    "http://www.w3.org/Graphics/SVG/1.1/DTD/svg11.dtd">
<svg t="1672280811874" class="icon" viewBox="0 0 1024 1024" version="1.1"
    xmlns="http://www.w3.org/2000/svg" p-id="5791" xmlns:xlink="http://www.w3.org/1999/xlink"
    width="200" height="200">
    <path
        d="M896 96a32 32 0 0 1 32 32v640a32 32 0 0 1-32 32H128a32 32 0 0 1-32-32V128a32 32 0 0 1 32-32h768z m0 32H128v640h768V128z"
        fill="#5D6D7E" p-id="5792"></path>
    <path d="M128 128h768v768H128z" fill="#FFFFFF" p-id="5793"></path>
    <path
        d="M448 480a32 32 0 0 1 32 32v160a32 32 0 0 1-32 32h-45.184l-26.144-32H448v-160H256v95.552H224V512a32 32 0 0 1 32-32h192z m0-288a32 32 0 0 1 32 32v160a32 32 0 0 1-32 32H256a32 32 0 0 1-32-32V224a32 32 0 0 1 32-32h192z m0 32H256v160h192V224z"
        fill="#30AD98" p-id="5794"></path>
    <path
        d="M307.968 640L384 736h256l78.528-96H896a32 32 0 0 1 32 32v192a64 64 0 0 1-64 64H160a64 64 0 0 1-64-64v-192a32 32 0 0 1 32-32h179.968z m425.728 32l-78.528 96h-286.656l-76-96H128v192a32 32 0 0 0 28.256 31.776L160 896h704a32 32 0 0 0 31.776-28.256L896 864v-192h-162.304z"
        fill="#5D6D7E" p-id="5795"></path>
    <path
        d="M688 192a16 16 0 0 1 15.744 13.12L704 208V288h80a16 16 0 0 1 2.88 31.744L784 320H704v80a16 16 0 0 1-31.744 2.88L672 400V320h-80a16 16 0 0 1-2.88-31.744L592 288H672V208a16 16 0 0 1 16-16z"
        fill="#C49F74" p-id="5796"></path>
</svg>